<?xml version="1.0" encoding="utf-8"?>
<!-- Generator: Adobe Illustrator 15.1.0, SVG Export Plug-In . SVG Version: 6.00 Build 0)  -->
<!DOCTYPE svg PUBLIC "-//W3C//DTD SVG 1.1//EN" "http://www.w3.org/Graphics/SVG/1.1/DTD/svg11.dtd">
<svg version="1.1" id="Ebene_1" xmlns="http://www.w3.org/2000/svg" xmlns:xlink="http://www.w3.org/1999/xlink" x="0px" y="0px"
	 width="329.833px" height="329.838px" viewBox="0 0 329.833 329.838" enable-background="new 0 0 329.833 329.838"
	 xml:space="preserve">
<g>
	<path fill-rule="evenodd" clip-rule="evenodd" fill="#181715" d="M45.604,37.528h-5.568v221.166h5.568
		c1.486,0,2.785-0.557,3.902-1.671c1.113-1.114,1.67-2.411,1.67-3.898V43.101c0-1.486-0.557-2.784-1.67-3.902
		C48.389,38.089,47.09,37.528,45.604,37.528z"/>
	<path fill-rule="evenodd" clip-rule="evenodd" fill="#181715" d="M0,0v329.838h329.832V0H0z M62.318,253.125
		c0,4.455-1.627,8.309-4.877,11.558c-3.248,3.249-7.199,4.968-11.838,5.152h-5.568v35.09H28.895V26.386h16.709
		c4.459,0,8.309,1.631,11.562,4.876c3.244,3.253,4.963,7.199,5.152,11.838V253.125z M103.357,304.924l-6.41-184.392l-6.686,184.392
		H78.568L90.822,26.386h12.256l11.973,278.538H103.357z M161.699,304.924h-27.855V26.386h11.145v267.397h16.711V304.924z
		 M206.371,304.924h-27.855V26.386h11.141v267.397h16.715V304.924z M242.689,304.924l-6.406-184.392l-6.688,184.392h-11.697
		l12.256-278.538h12.254l11.975,278.538H242.689z M304.91,48.673H293.77v-6.41c0-1.482-0.557-2.784-1.67-3.898
		c-1.115-1.113-2.416-1.67-3.902-1.67s-2.785,0.557-3.898,1.67c-1.113,1.114-1.67,2.417-1.67,3.898v11.698
		c0,3.161,0.32,8.357,0.973,15.601c0.648,7.243,1.486,15.785,2.508,25.624c1.018,9.843,2.18,20.66,3.482,32.45
		c1.297,11.794,2.648,23.773,4.037,35.932c1.395,12.163,2.783,24.142,4.18,35.932c1.393,11.795,2.6,22.655,3.621,32.584
		c1.018,9.939,1.854,18.573,2.508,25.904c0.648,7.34,0.973,12.676,0.973,16.017v15.039c0,4.459-1.627,8.313-4.871,11.562
		c-3.252,3.249-7.203,4.968-11.842,5.152c-4.455,0-8.314-1.623-11.559-4.872c-3.248-3.249-4.973-7.195-5.152-11.843v-6.406h11.143
		v6.406c0,1.491,0.557,2.789,1.67,3.902s2.412,1.67,3.898,1.67s2.787-0.557,3.902-1.67c1.113-1.114,1.67-2.412,1.67-3.902v-14.202
		c0-2.968-0.324-7.94-0.977-14.903c-0.65-6.962-1.488-15.271-2.506-24.926c-1.02-9.653-2.227-20.286-3.621-31.892
		c-1.389-11.606-2.783-23.44-4.178-35.515c-1.391-12.066-2.74-23.997-4.039-35.792c-1.301-11.79-2.463-22.703-3.48-32.727
		c-1.021-10.028-1.859-18.801-2.508-26.325c-0.654-7.52-0.975-13.04-0.975-16.569v-13.93c0-4.455,1.623-8.305,4.877-11.558
		c3.244-3.245,7.189-4.963,11.834-5.152c4.459,0,8.309,1.627,11.562,4.872c3.244,3.253,4.963,7.199,5.15,11.838V48.673z"/>
</g>
</svg>
