<?xml version="1.0" encoding="UTF-8"?>
<svg id="Ebene_1" data-name="Ebene 1" xmlns="http://www.w3.org/2000/svg" version="1.1" viewBox="0 0 315.1 319.9">
  <defs>
    <style>
      .cls-1 {
        fill: #fff;
        stroke-width: 0px;
      }
    </style>
  </defs>
  <path class="cls-1" d="M23.5,15.6c1.3,1.3,1.9,2.8,1.9,4.5v239.8c0,1.7-.6,3.2-1.9,4.4-1.3,1.3-2.8,1.9-4.5,1.9h-6.3V13.7h6.3c1.7,0,3.2.6,4.5,1.9ZM38.1,20c-.2-5.3-2.2-9.8-5.9-13.5C28.6,2.8,24.2.9,19.1.9H0v318h12.7v-40h6.3c5.3-.2,9.8-2.2,13.5-5.9,3.7-3.7,5.5-8.1,5.5-13.2V20ZM98.4,318.9L84.7.9h-14l-14,318h13.4l7.6-210.5,7.3,210.5h13.3ZM151.6,306.2h-19.1V.9h-12.7v318h31.8v-12.7ZM202.6,306.2h-19.1V.9h-12.7v318h31.8v-12.7ZM257.4,318.9L243.7.9h-14l-14,318h13.4l7.6-210.5,7.3,210.5h13.4ZM315.1,19.1c-.2-5.3-2.2-9.8-5.9-13.5C305.5,1.8,301.1,0,296,0c-5.3.2-9.8,2.2-13.5,5.9-3.7,3.7-5.6,8.1-5.6,13.2v15.9c0,4,.4,10.3,1.1,18.9.8,8.6,1.7,18.6,2.9,30.1,1.2,11.4,2.5,23.9,4,37.4,1.5,13.5,3,27.1,4.6,40.8,1.6,13.8,3.2,27.3,4.8,40.5,1.6,13.2,2.9,25.4,4.1,36.4,1.2,11,2.1,20.5,2.8,28.4.7,8,1.1,13.6,1.1,17v16.2c0,1.7-.6,3.2-1.9,4.5-1.3,1.3-2.8,1.9-4.5,1.9s-3.2-.6-4.5-1.9c-1.3-1.3-1.9-2.7-1.9-4.5v-7.3h-12.7v7.3c.2,5.3,2.2,9.8,5.9,13.5,3.7,3.7,8.1,5.6,13.2,5.6,5.3-.2,9.8-2.2,13.5-5.9,3.7-3.7,5.5-8.1,5.5-13.2v-17.2c0-3.8-.4-9.9-1.1-18.3-.8-8.4-1.7-18.2-2.9-29.6-1.2-11.3-2.5-23.7-4.1-37.2-1.6-13.5-3.2-27.1-4.8-41-1.6-13.9-3.2-27.5-4.6-41-1.5-13.5-2.8-25.8-4-37-1.2-11.2-2.1-21-2.9-29.3-.8-8.3-1.1-14.2-1.1-17.8v-13.4c0-1.7.6-3.2,1.9-4.4,1.3-1.3,2.7-1.9,4.5-1.9s3.2.6,4.5,1.9c1.3,1.3,1.9,2.7,1.9,4.4v7.3h12.7v-7.3h0Z"/>
</svg>
